<svg width="19" height="16" viewBox="0 0 19 16" fill="none" xmlns="http://www.w3.org/2000/svg">
<path d="M9.03735 1.26206V14.7254C9.03588 14.8375 9.00193 14.9468 8.93962 15.0399C8.87731 15.1331 8.7893 15.2061 8.68628 15.2503C8.58327 15.2944 8.46965 15.3079 8.35922 15.2887C8.24878 15.2696 8.14626 15.2188 8.06409 15.1426L4.10157 11.3423C4.04979 11.2907 3.98835 11.2497 3.92075 11.2219C3.85316 11.1941 3.78074 11.1799 3.70764 11.18H0.579317C0.425673 11.18 0.278321 11.119 0.169678 11.0103C0.0610346 10.9017 0 10.7544 0 10.6007V5.38687C0 5.23323 0.0610346 5.08592 0.169678 4.97728C0.278321 4.86863 0.425673 4.80755 0.579317 4.80755H3.70764C3.78074 4.80773 3.85316 4.79352 3.92075 4.76569C3.98835 4.73786 4.04979 4.69693 4.10157 4.64533L8.06409 0.844974C8.14626 0.768749 8.24878 0.717998 8.35922 0.698871C8.46965 0.679744 8.58327 0.69305 8.68628 0.7372C8.7893 0.781351 8.87731 0.854493 8.93962 0.947655C9.00193 1.04082 9.03588 1.14999 9.03735 1.26206V1.26206ZM12.7682 0.0339863C12.5776 -0.0247869 12.3716 -0.00685013 12.1942 0.0840542C12.0167 0.174959 11.8817 0.331549 11.8181 0.520522C11.7664 0.714019 11.7903 0.919962 11.885 1.09644C11.9797 1.27293 12.1381 1.40678 12.3279 1.47068C13.7294 1.89296 14.9577 2.75535 15.8307 3.93023C16.7038 5.10512 17.1752 6.53003 17.1752 7.9938C17.1752 9.45756 16.7038 10.8823 15.8307 12.0572C14.9577 13.2321 13.7294 14.0946 12.3279 14.5169C12.1623 14.5762 12.0222 14.6908 11.9312 14.8414C11.8402 14.9919 11.8039 15.1691 11.8284 15.3433C11.8529 15.5175 11.9367 15.6779 12.0657 15.7975C12.1946 15.9171 12.3609 15.9887 12.5364 16H12.7682C14.4753 15.4814 15.9704 14.4276 17.033 12.9944C18.0955 11.5611 18.6691 9.82434 18.6691 8.04019C18.6691 6.25604 18.0955 4.51912 17.033 3.08587C15.9704 1.65261 14.4753 0.598969 12.7682 0.0803769V0.0339863ZM12.0498 11.3423C12.124 11.4296 12.2163 11.4997 12.3203 11.5478C12.4244 11.5958 12.5377 11.6206 12.6523 11.6203C12.821 11.6224 12.9851 11.5649 13.1157 11.4581C13.6412 11.0439 14.066 10.5158 14.358 9.91378C14.65 9.31173 14.8018 8.65134 14.8018 7.9822C14.8018 7.31306 14.65 6.65267 14.358 6.05062C14.066 5.44857 13.6412 4.92054 13.1157 4.5063C12.9572 4.40988 12.769 4.37439 12.5863 4.40644C12.4035 4.4385 12.2387 4.53593 12.1224 4.68055C12.0061 4.82516 11.9464 5.00702 11.9544 5.1924C11.9624 5.37777 12.0374 5.55401 12.1657 5.68813C12.5254 5.95794 12.8174 6.30779 13.0185 6.70999C13.2196 7.1122 13.3243 7.55571 13.3243 8.0054C13.3243 8.45508 13.2196 8.89859 13.0185 9.3008C12.8174 9.703 12.5254 10.0529 12.1657 10.3227C12.0234 10.448 11.9327 10.6216 11.9113 10.81C11.8899 10.9985 11.9393 11.1882 12.0498 11.3423V11.3423Z" fill="white"/>
</svg>
